<svg width="419" height="519" viewBox="0 0 419 519" fill="none" xmlns="http://www.w3.org/2000/svg">
<rect width="419" height="519" rx="20" fill="#5C14EB"/>
<path d="M116.073 223.368V304.848C116.101 307.403 115.627 309.938 114.678 312.305C113.729 314.673 112.324 316.826 110.545 318.639C108.766 320.453 106.649 321.89 104.317 322.868C101.984 323.846 99.4825 324.345 96.9576 324.336C86.3244 324.336 76 315.619 76 304.848V223.368C76 212.742 86.2913 204.025 96.9576 204.025C102.021 204.046 106.871 206.09 110.452 209.713C114.032 213.336 116.053 218.245 116.073 223.368ZM123.585 333.801C123.579 336.537 124.107 339.246 125.139 341.774C126.171 344.303 127.686 346.6 129.597 348.534C131.509 350.468 133.779 352.001 136.277 353.045C138.776 354.089 141.453 354.624 144.156 354.618H157.988L158.198 397.601C158.198 423.552 196.572 423.351 196.572 397.601V354.629H222.428V397.612C222.428 423.429 261.034 423.496 261.034 397.612V354.629H275.075C277.768 354.62 280.433 354.075 282.917 353.024C285.402 351.973 287.658 350.437 289.555 348.504C291.453 346.571 292.956 344.279 293.979 341.758C295.001 339.237 295.523 336.537 295.514 333.812V207.575H123.585V333.801ZM295.978 200.788H122.802C122.802 170.652 140.594 144.512 167.011 130.872L153.775 106.037C151.833 102.588 156.764 100.457 158.43 103.37L171.92 128.416C183.789 123.162 196.605 120.449 209.561 120.449C222.516 120.449 235.332 123.162 247.202 128.416L260.615 103.448C262.357 100.423 267.233 102.678 265.269 106.116L252.033 130.872C278.186 144.512 295.978 170.686 295.978 200.788ZM177.314 161.723C177.314 159.763 176.544 157.884 175.175 156.498C173.805 155.112 171.948 154.334 170.011 154.334C168.125 154.408 166.341 155.218 165.033 156.595C163.724 157.971 162.993 159.807 162.993 161.717C162.993 163.627 163.724 165.463 165.033 166.839C166.341 168.216 168.125 169.026 170.011 169.101C171.942 169.101 173.795 168.327 175.163 166.948C176.532 165.57 177.305 163.699 177.314 161.745V161.723ZM256.147 161.723C256.125 160.284 255.682 158.884 254.875 157.7C254.067 156.516 252.93 155.601 251.609 155.071C250.287 154.54 248.84 154.418 247.449 154.719C246.059 155.021 244.788 155.733 243.798 156.765C242.807 157.797 242.141 159.103 241.883 160.518C241.626 161.933 241.789 163.393 242.352 164.715C242.914 166.036 243.851 167.159 245.044 167.942C246.237 168.724 247.633 169.131 249.055 169.112C250.955 169.068 252.762 168.272 254.088 166.894C255.414 165.517 256.154 163.668 256.147 161.745V161.723ZM322.042 204.003C319.53 203.996 317.041 204.491 314.719 205.46C312.396 206.43 310.286 207.854 308.509 209.652C306.733 211.45 305.325 213.585 304.367 215.935C303.409 218.285 302.92 220.804 302.927 223.346V304.826C302.917 307.376 303.403 309.903 304.358 312.262C305.314 314.622 306.719 316.768 308.494 318.578C310.269 320.387 312.38 321.825 314.704 322.81C317.029 323.794 319.522 324.305 322.042 324.314C332.753 324.314 343 315.597 343 304.826V223.346C342.967 212.542 332.676 204.025 322.042 204.025V204.003Z" fill="white"/>
</svg>
