<svg width="232" height="124" viewBox="0 0 232 124" fill="none" xmlns="http://www.w3.org/2000/svg">
<g clip-path="url(#clip0_94_10)">
<path d="M145.995 105.467C143.002 105.467 140.568 103.036 140.568 100.05C140.568 97.0631 143.002 94.6338 145.995 94.6338C148.988 94.6338 151.423 97.0626 151.423 100.05C151.423 103.037 148.988 105.467 145.995 105.467ZM86.0052 105.467C83.0125 105.467 80.5781 103.036 80.5781 100.05C80.5781 97.0631 83.012 94.6338 86.0052 94.6338C88.9979 94.6338 91.4322 97.0626 91.4322 100.05C91.4322 103.037 88.9984 105.467 86.0052 105.467ZM147.942 72.842L158.789 54.0946C159.087 53.5772 159.168 52.9627 159.013 52.386C158.858 51.8093 158.481 51.3175 157.963 51.0184C157.444 50.7206 156.829 50.6401 156.251 50.7946C155.673 50.9491 155.18 51.3261 154.88 51.8427L143.897 70.8271C135.498 67.0024 126.065 64.8715 116 64.8715C105.935 64.8715 96.5022 67.0024 88.1033 70.8271L77.12 51.8427C76.8202 51.3261 76.3273 50.9491 75.7495 50.7946C75.1716 50.6401 74.5559 50.7206 74.0374 51.0184C73.5193 51.3172 73.1412 51.809 72.9864 52.3859C72.8315 52.9627 72.9124 53.5773 73.2114 54.0946L84.0586 72.842C65.4324 82.9513 52.6932 101.769 50.8296 124H181.171C179.305 101.769 166.566 82.9513 147.942 72.8415" fill="#E6E6E6"/>
</g>
<defs>
<clipPath id="clip0_94_10">
<rect width="232" height="124" fill="white"/>
</clipPath>
</defs>
</svg>
