<svg width="99" height="122" viewBox="0 0 99 122" fill="none" xmlns="http://www.w3.org/2000/svg">
<g clip-path="url(#clip0_94_19)">
<path d="M54.6235 10.6188C62.6025 0.0539467 73.6952 0.00244141 73.6952 0.00244141C73.6952 0.00244141 75.3452 9.93515 67.4185 19.5035C58.9547 29.7204 49.3345 28.0486 49.3345 28.0486C49.3345 28.0486 47.5281 20.0134 54.6235 10.6188ZM50.3493 35.0064C54.4541 35.0064 62.0724 29.338 71.9887 29.338C89.0578 29.338 95.7728 41.5396 95.7728 41.5396C95.7728 41.5396 82.6395 48.2852 82.6395 64.6531C82.6395 83.1174 99 89.4808 99 89.4808C99 89.4808 87.5634 121.818 72.1158 121.818C65.0208 121.818 59.5047 117.015 52.0291 117.015C44.4108 117.015 36.8508 121.998 31.9269 121.998C17.8208 121.998 0 91.3224 0 66.6644C0 42.4044 15.0842 29.6779 29.2325 29.6779C38.4302 29.6779 45.5677 35.0064 50.3493 35.0064Z" fill="white"/>
</g>
<defs>
<clipPath id="clip0_94_19">
<rect width="99" height="122" fill="white"/>
</clipPath>
</defs>
</svg>
