<svg width="77" height="27" viewBox="0 0 77 27" fill="none" xmlns="http://www.w3.org/2000/svg">
<path d="M37.005 26.369C38.1 26.5141 39 25.6046 39 24.5V13.5H27C25.8954 13.5 24.9828 14.4016 25.1632 15.4914C26.0955 21.1227 30.9196 25.5628 37.005 26.369Z" fill="white"/>
<path d="M40.99 0.677943C39.9031 0.481408 39 1.39543 39 2.5V13.5H49C50.1046 13.5 51.0151 12.5999 50.8598 11.5063C50.0742 5.97724 46.0728 1.59699 40.99 0.677943Z" fill="white"/>
<path d="M64 0.5V13.5H75C76.1046 13.5 77.0162 12.5992 76.8482 11.5074C75.8894 5.27369 70.5021 0.5 64 0.5Z" fill="white"/>
<path d="M64 13.5V26.5H75C76.1046 26.5 77.0162 25.5992 76.8482 24.5075C75.8891 18.2752 70.5019 13.5 64 13.5Z" fill="white"/>
<path d="M12 0.5V13.5H23.0006C24.1049 13.5 25.0165 12.5995 24.8489 11.508C23.8917 5.27397 18.5041 0.5 12 0.5Z" fill="white"/>
<path d="M12 0.5H2C0.895431 0.5 0 1.39543 0 2.5V13.5H12V0.5Z" fill="white"/>
<path d="M12 13.5H0V24.5C0 25.6046 0.895431 26.5 2 26.5H10C11.1046 26.5 12 25.6046 12 24.5V13.5Z" fill="white"/>
<path d="M64 0.5H53C51.8954 0.5 51 1.39543 51 2.5V13.5H64V0.5Z" fill="white"/>
<path d="M64 13.5H51V24.5C51 25.6046 51.8954 26.5 53 26.5H64V13.5Z" fill="white"/>
</svg>
