<svg width="467" height="454" viewBox="0 0 467 454" fill="none" xmlns="http://www.w3.org/2000/svg">
<path d="M275.088 168.326L175.002 141.764L228.163 263.511L323.361 283.654L275.088 168.326ZM231.301 259.662L198.573 184.711L248.608 198.013L280.321 270.035L231.301 259.662ZM251.789 194.334L196.342 179.588L182.704 148.351L271.908 172.027L316.105 277.621L285.632 271.174L251.789 194.334Z" fill="#5C14EB"/>
<path d="M293.16 140.026L128.041 95.8921L96.4563 123.525L179.991 323.155L341.844 355.31L374.425 326.824L293.16 140.026ZM101.745 124.741L127.798 101.945L210.388 291.676L182.391 317.474L101.745 124.741ZM214.581 290.305L132.46 101.627L289.976 143.722L368.03 323.167L214.581 290.305ZM340.568 350.557L186.225 319.875L213.656 294.602L367.005 327.412L340.568 350.557Z" fill="#5C14EB"/>
<path d="M182.392 317.474L101.745 124.741L127.799 101.945L210.384 291.68L182.392 317.474Z" fill="#5C14EB"/>
<path d="M367.014 327.445L340.579 350.572L186.244 319.901L213.674 294.628L367.014 327.445Z" fill="#5C14EB"/>
<path d="M289.976 143.722L132.461 101.627L214.603 290.336L368.048 323.193L289.976 143.722ZM228.163 263.511L175.001 141.764L275.087 168.326L323.361 283.654L228.163 263.511Z" fill="white"/>
<path d="M316.07 277.615L285.597 271.168L251.754 194.328L196.307 179.582L182.669 148.345L271.873 172.021L316.07 277.615Z" fill="#5C14EB"/>
</svg>
