<svg width="395" height="393" viewBox="0 0 395 393" fill="none" xmlns="http://www.w3.org/2000/svg">
<path d="M174.398 318.028L177.708 316.146L178.033 316.263L178.15 315.938L315.391 237.802L351.679 121.748L113.463 57.8266L173.485 314.175L173.27 314.772L173.628 314.901L174.398 318.028ZM311.265 234.479L180.296 308.982L210.849 212.033L344.207 129.027L311.265 234.479ZM122.189 65.2357L342.434 124.333L209.58 207.003L122.189 65.2357ZM122.682 75.4591L206.076 210.756L176.405 304.904L122.682 75.4591Z" fill="#5C14EB"/>
<path d="M180.296 308.982L210.847 212.04L344.224 129.041L311.266 234.479L180.296 308.982Z" fill="#5C14EB"/>
<path d="M176.405 304.904L122.682 75.4591L206.077 210.756L176.405 304.904Z" fill="white"/>
<path d="M209.576 207.016L122.19 65.2357L342.431 124.346L209.576 207.016Z" fill="white"/>
</svg>
